{"title":"Spaceballs &amp; BluRay Xtras (1987) 1080p","uid":12114056,"size":5293307661,"categoryP":"video","categoryS":"movies","magnet":"?xt=urn:btih:8ceb7bbcbd7ed58b815897f7c416d9bbdcd54c5b&amp;dn=Spaceballs+%26amp%3B+BluRay+Xtras+%281987%29+1080p&amp;tr=udp%3A%2F%2Ftracker.openbittorrent.com%3A80&amp;tr=udp%3A%2F%2Fopen.demonii.com%3A1337&amp;tr=udp%3A%2F%2Ftracker.coppersurfer.tk%3A6969&amp;tr=udp%3A%2F%2Fexodus.desync.com%3A6969","seeders":0,"leechers":0,"uploader":"AlienMethod","files":22,"time":1436643271,"description":"x264/MP4\n6-Channel AC3@448kbps (audio 1)\n2-Channel AAC@128kbps (audio 2)\nEnglish Subs\nBluRay Xtras Incl.\n\n\n&quot;Planet Spaceball's President Skroob sends Lord Dark Helmet to steal Planet Druidia's\nabundant supply of air to replenish their own, and only Lone Starr can stop them.&quot;\n\n\n\n\nGeneral\nComplete name : F:TorrentsSpaceballs &amp; BluRay Xtras (1987) 1080p\nSpaceballs (1987) 1080p.mp4\nFormat : MPEG-4\nFormat profile : Base Media\nCodec ID : isom\nFile size : 3.90 GiB\nDuration : 1h 36mn\nOverall bit rate mode : Variable\nOverall bit rate : 5 801 Kbps\nEncoded date : UTC 2015-07-11 14:55:16\nTagged date : UTC 2015-07-11 14:55:16\nWriting application : My MP4Box GUI 0.6.0.6 \n\nVideo\nID : 1\nFormat : AVC\nFormat/Info : Advanced Video Codec\nFormat profile : &lt;a class=&quot;__cf_email__&quot; href=&quot;/cdn-cgi/l/email-protection&quot; data-cfemail=&quot;3179585659717d051f01&quot;&gt;[email&amp;#160;protected]&lt;/a&gt;&lt;script data-cfhash='f9e31' type=&quot;text/javascript&quot;&gt;\n/* &lt;![CDATA[ */!function(){try{var t=&quot;currentScript&quot;in document?document.currentScript:function(){for(var t=document.getElementsByTagName(&quot;script&quot;),e=t.length;e--;)if(t[e].getAttribute(&quot;data-cfhash&quot;))return t[e]}();if(t&amp;&amp;t.previousSibling){var e,r,n,i,c=t.previousSibling,a=c.getAttribute(&quot;data-cfemail&quot;);if(a){for(e=&quot;&quot;,r=parseInt(a.substr(0,2),16),n=2;a.length-n;n+=2)i=parseInt(a.substr(n,2),16)^r,e+=String.fromCharCode(i);e=document.createTextNode(e),c.parentNode.replaceChild(e,c)}t.parentNode.removeChild(t);}}catch(u){}}()/* ]]&gt; */&lt;/script&gt;\nFormat settings, CABAC : Yes\nFormat settings, ReFrames : 4 frames\nCodec ID : avc1\nCodec ID/Info : Advanced Video Coding\nDuration : 1h 36mn\nBit rate : 5 231 Kbps\nMaximum bit rate : 42.3 Mbps\nWidth : 1 920 pixels\nHeight : 1 040 pixels\nDisplay aspect ratio : 1.85:1\nFrame rate mode : Constant\nFrame rate : 23.976 fps\nColor space : YUV\nChroma subsampling : 4:2:0\nBit depth : 8 bits\nScan type : Progressive\nBits/(Pixel*Frame) : 0.109\nStream size : 3.51 GiB (90%)\nTitle : VideoEncode.h264\nWriting library : x264 core 142 r2479 dd79a61\nEncoded date : UTC 2015-07-11 14:55:16\nTagged date : UTC 2015-07-11 14:55:47\n\nAudio #1\nID : 2\nFormat : AC-3\nFormat/Info : Audio Coding 3\nMode extension : CM (complete main)\nFormat settings, Endianness : Big\nCodec ID : ac-3\nDuration : 1h 36mn\nBit rate mode : Constant\nBit rate : 448 Kbps\nChannel(s) : 6 channels\nChannel positions : Front: L C R, Side: L R, LFE\nSampling rate : 48.0 KHz\nBit depth : 16 bits\nCompression mode : Lossy\nStream size : 308 MiB (8%)\nTitle : AC35.1.ac3\nEncoded date : UTC 2015-07-11 14:55:38\nTagged date : UTC 2015-07-11 14:55:47\n\nAudio #2\nID : 3\nFormat : AAC\nFormat/Info : Advanced Audio Codec\nFormat profile : LC\nCodec ID : 40\nDuration : 1h 36mn\nBit rate mode : Variable\nBit rate : 119 Kbps\nMaximum bit rate : 154 Kbps\nChannel(s) : 2 channels\nChannel positions : Front: L R\nSampling rate : 48.0 KHz\nCompression mode : Lossy\nStream size : 81.6 MiB (2%)\nTitle : AAC2.0.m4a\nEncoded date : UTC 2015-07-11 14:55:45\nTagged date : UTC 2015-07-11 14:55:47","torrent":{"xt":"urn:btih:8ceb7bbcbd7ed58b815897f7c416d9bbdcd54c5b","amp;dn":"Spaceballs+%26amp%3B+BluRay+Xtras+%281987%29+1080p","amp;tr":["udp%3A%2F%2Ftracker.openbittorrent.com%3A80","udp%3A%2F%2Fopen.demonii.com%3A1337","udp%3A%2F%2Ftracker.coppersurfer.tk%3A6969","udp%3A%2F%2Fexodus.desync.com%3A6969"],"infoHash":"8ceb7bbcbd7ed58b815897f7c416d9bbdcd54c5b","infoHashBuffer":{"type":"Buffer","data":[140,235,123,188,189,126,213,139,129,88,151,247,196,22,217,187,220,213,76,91]},"announce":[],"urlList":[]}}